<?xml version="1.0" encoding="UTF-8"?>
<svg version="1.1" xmlns="http://www.w3.org/2000/svg" width="512" height="512">
<path d="M0 0 C0.82536288 -0.00382555 1.65072577 -0.00765109 2.50109965 -0.01159257 C5.24685739 -0.02185197 7.99240325 -0.01794394 10.73817444 -0.01396179 C12.71487622 -0.01831215 14.69157632 -0.02349637 16.66827393 -0.02944946 C22.02362467 -0.04281511 27.37890474 -0.04342089 32.7342689 -0.04088616 C37.20990393 -0.03981491 41.68552474 -0.04470371 46.16115671 -0.04949158 C56.72167088 -0.06057811 67.28214946 -0.06102882 77.84266663 -0.05497742 C88.72743433 -0.04893603 99.61207282 -0.06125484 110.49681848 -0.08254749 C119.85246539 -0.10017416 129.20807121 -0.1061632 138.56373411 -0.10290974 C144.14692517 -0.10109863 149.73002402 -0.10371611 155.3132 -0.11762428 C160.56390514 -0.13021548 165.81440904 -0.1282462 171.06511116 -0.11521339 C172.98834425 -0.11285098 174.91159157 -0.11557024 176.83480835 -0.12383652 C179.46765928 -0.13433405 182.09983865 -0.12617944 184.73266602 -0.11352539 C185.48696504 -0.12089968 186.24126407 -0.12827396 187.01842064 -0.13587171 C193.96276866 -0.06603843 199.92255766 1.68204671 205.80482483 5.38569641 C210.69275475 10.73914347 211.49884203 16.19006592 211.42982483 23.26069641 C212.36419373 23.25181396 213.29856262 23.24293152 214.26124573 23.23377991 C223.08837132 23.15251655 231.91542051 23.09264611 240.742836 23.05344772 C245.28058525 23.03261752 249.8180313 23.00438395 254.35560608 22.9589386 C258.73875895 22.91531707 263.12162109 22.89152498 267.50497437 22.88118744 C269.17306084 22.87382522 270.84113231 22.8594486 272.50909424 22.83777618 C290.37572272 22.61496707 290.37572272 22.61496707 296.92774963 28.6375885 C302.34077581 34.52637174 302.72691758 40.78622641 302.70448303 48.352005 C302.71214943 49.69466682 302.71214943 49.69466682 302.7199707 51.06445312 C302.73382929 54.01274877 302.73291264 56.96080964 302.73060608 59.90913391 C302.73449524 61.96647732 302.73883036 64.02381993 302.74359131 66.0811615 C302.75104563 70.3900564 302.75076806 74.69886936 302.74549866 79.00776672 C302.73970709 84.51778702 302.75663145 90.02747084 302.77984333 95.53743553 C302.79460656 99.78577115 302.7954488 104.03402624 302.7923336 108.28238297 C302.79284558 110.31327099 302.79805996 112.34416366 302.80814552 114.3750267 C302.82054186 117.22043694 302.81369889 120.06519818 302.80213928 122.91059875 C302.80978302 123.74202896 302.81742676 124.57345917 302.82530212 125.43008423 C302.77002259 131.61539981 301.81255957 137.33591775 297.78138733 142.28413391 C296.92673889 142.95315735 296.92673889 142.95315735 296.05482483 143.63569641 C295.49021545 144.09718079 294.92560608 144.55866516 294.34388733 145.03413391 C289.94045347 147.85592622 286.23139924 148.5052611 281.03529358 148.45600891 C279.95143372 148.45101379 278.86757385 148.44601868 277.75086975 148.44087219 C276.38679993 148.42266418 275.0227301 148.40445618 273.61732483 148.38569641 C269.26544983 148.34444641 264.91357483 148.30319641 260.42982483 148.26069641 C260.42982483 160.14069641 260.42982483 172.02069641 260.42982483 184.26069641 C253.68372701 179.76329787 253.68372701 179.76329787 251.28138733 177.49116516 C250.75520813 176.99850159 250.22902893 176.50583801 249.68690491 175.99824524 C248.87902527 175.23097107 248.87902527 175.23097107 248.05482483 174.44819641 C246.90580147 173.37191044 245.75606491 172.29638534 244.60560608 171.22163391 C243.78310364 170.4515802 243.78310364 170.4515802 242.94398499 169.66596985 C240.48053863 167.37967555 237.94515077 165.18052159 235.40248108 162.98335266 C232.13403915 160.12912911 228.93463688 157.19820038 225.72669983 154.27632141 C224.96873108 153.61116516 224.21076233 152.94600891 223.42982483 152.26069641 C222.84088314 151.73179275 222.25194145 151.20288908 221.64515305 150.65795803 C218.8164536 148.87382819 217.01989746 148.88696697 213.68769836 148.8888855 C212.51577942 148.88212799 211.34386047 148.87537048 210.13642883 148.8684082 C208.8542749 148.87612747 207.57212097 148.88384674 206.25111389 148.89179993 C204.88420816 148.88933136 203.51730431 148.88549238 202.15040588 148.88038635 C199.20820563 148.87205069 196.26619894 148.87285401 193.3239975 148.88057137 C188.66710473 148.89216207 184.01046046 148.87998433 179.35359192 148.86395264 C167.78396607 148.82776729 156.21434587 148.82152483 144.64466858 148.8240509 C135.65784747 148.82576391 126.67122957 148.81858178 117.68446517 148.78407234 C113.06017092 148.76731589 108.43637284 148.76904094 103.81208086 148.78489506 C100.92720066 148.79071209 98.04255317 148.7799157 95.15771484 148.76464844 C93.19357977 148.75917542 91.22942034 148.77349261 89.26533508 148.78851318 C81.69508634 148.72723623 75.61178739 148.26664851 69.8820076 142.77802372 C66.22272358 138.61805502 65.29705838 135.48371285 65.36732483 130.07319641 C65.37634827 129.17214172 65.3853717 128.27108704 65.39466858 127.34272766 C65.40627014 126.65565735 65.4178717 125.96858704 65.42982483 125.26069641 C61.45414372 125.19759036 57.84422559 125.22052252 54.55482483 127.63960266 C52.78904388 129.46669545 51.11397054 131.35837728 49.42982483 133.26069641 C48.26272673 134.34556715 47.07408407 135.40762223 45.86732483 136.44819641 C44.87152405 137.30864563 44.87152405 137.30864563 43.85560608 138.18647766 C42.52688163 139.32263335 41.19806162 140.45867743 39.86878967 141.5941925 C38.7057587 142.58770482 37.54292452 143.58144754 36.38026428 144.57539368 C35.16464523 145.61444963 33.94833762 146.65270057 32.7313385 147.69013977 C28.1627265 151.59666983 23.71430729 155.61094788 19.32044983 159.71382141 C17.42982483 161.26069641 17.42982483 161.26069641 15.42982483 161.26069641 C15.42982483 149.38069641 15.42982483 137.50069641 15.42982483 125.26069641 C6.48496556 125.37899466 6.48496556 125.37899466 -2.45933533 125.53096008 C-3.5813031 125.53845276 -4.70327087 125.54594543 -5.85923767 125.55366516 C-7.00086365 125.56937561 -8.14248962 125.58508606 -9.31871033 125.60127258 C-13.80696973 125.1311478 -17.14645296 123.60084583 -20.43345642 120.50679016 C-21.1508197 119.61153625 -21.1508197 119.61153625 -21.88267517 118.69819641 C-22.61937439 117.79907532 -22.61937439 117.79907532 -23.37095642 116.88179016 C-26.32255515 112.891844 -25.73319125 108.73406934 -25.74717712 103.96504211 C-25.75374832 103.00063705 -25.76031952 102.03623199 -25.76708984 101.04260254 C-25.7868526 97.84056018 -25.7984931 94.63856481 -25.80845642 91.43647766 C-25.81253195 90.34379263 -25.81660748 89.2511076 -25.8208065 88.1253109 C-25.84168158 82.34011905 -25.85597615 76.55495101 -25.86534119 70.76972961 C-25.87639863 64.79536294 -25.91078707 58.82136944 -25.95051289 52.84713459 C-25.97666945 48.2531363 -25.98503228 43.65922696 -25.98862267 39.06516075 C-25.99349238 36.8631711 -26.00511725 34.66118552 -26.02366066 32.45926857 C-26.04802728 29.37365393 -26.04709111 26.28900492 -26.04014587 23.20332336 C-26.05936096 21.84317612 -26.05936096 21.84317612 -26.07896423 20.45555115 C-26.02128648 13.41054244 -24.33291791 9.100182 -19.32017517 3.94819641 C-13.3354695 0.27576339 -6.83391619 -0.03413955 0 0 Z " fill="#4AD7BC" transform="translate(140.57017517089844,37.73930358886719)"/>
<path d="M0 0 C3.02508145 1.73602105 5.41790069 3.83580137 7 7 C7.57971014 14.07246377 7.57971014 14.07246377 5.125 18 C3 20 3 20 1 20 C1 31.55 1 43.1 1 55 C4.9818335 54.98428955 8.96366699 54.9685791 13.06616211 54.95239258 C26.22969578 54.90265862 39.39322803 54.86938279 52.55683041 54.84456348 C60.53704059 54.82911622 68.51716155 54.80806782 76.49731445 54.77368164 C83.45548377 54.74371353 90.41358845 54.72440944 97.37182051 54.71773452 C101.05375236 54.71383476 104.73549934 54.70471489 108.41737175 54.68280983 C112.53475913 54.65851401 116.65182821 54.65803475 120.76928711 54.65942383 C121.98057785 54.648638 123.19186859 54.63785217 124.43986511 54.6267395 C131.99320903 54.65427038 139.16105885 55.05189828 145.33984375 59.796875 C148.87038469 64.11293972 150.9663681 67.48729652 152 73 C152.58007812 73.02578125 153.16015625 73.0515625 153.7578125 73.078125 C159.21594798 73.47442527 162.71429889 74.32654191 167 78 C171.12777783 82.83037831 170.33718777 88.31347487 170.1875 94.3125 C170.17396484 95.33923828 170.16042969 96.36597656 170.14648438 97.42382812 C170.11123883 99.94975909 170.061967 102.4746066 170 105 C170.61488281 104.97317139 171.22976563 104.94634277 171.86328125 104.91870117 C172.67152344 104.89783447 173.47976563 104.87696777 174.3125 104.85546875 C175.11300781 104.82864014 175.91351563 104.80181152 176.73828125 104.77416992 C179 105 179 105 182 107.3125 C185.10891088 111.490099 185.18489005 114.71764669 185.25 119.8125 C185.28867187 121.61654297 185.28867187 121.61654297 185.328125 123.45703125 C184.95696474 127.46467838 183.93020203 131.06979797 181 134 C180.8883352 135.36384771 180.84331764 136.73325554 180.82641602 138.1015625 C180.80618126 139.40927612 180.80618126 139.40927612 180.78553772 140.7434082 C180.77509933 141.6943335 180.76466095 142.64525879 180.75390625 143.625 C180.72093706 145.63151427 180.68772599 147.63802459 180.65429688 149.64453125 C180.6070909 152.81295732 180.56273247 155.98137103 180.52319336 159.14990234 C180.48317439 162.20428405 180.43166973 165.25831545 180.37890625 168.3125 C180.3704921 169.24723145 180.36207794 170.18196289 180.35340881 171.14501953 C180.21110723 178.81526865 179.89105752 186.60854685 174.75 192.6875 C174.13382813 193.43386719 173.51765625 194.18023437 172.8828125 194.94921875 C171.2103742 196.77085797 169.48134123 198.37233849 167.625 200 C164.53764662 203.52840386 164.3243144 205.4073206 164.30078125 209.94921875 C163.91289451 212.59390106 163.10551913 213.40019447 161 215 C157.03726124 216.02737671 154.88873027 216.40572469 151.125 214.6875 C149 213 149 213 148 211 C147.43244911 203.96236891 147.43244911 203.96236891 149.4375 200.5625 C152.19904656 198.87863015 153.02305026 198.90245088 156.125 198.875 C161.94645898 198.47019656 164.87503011 195.0047317 168.8359375 191.03125 C173.76219207 184.13093674 174.45396696 176.77480644 174.51171875 168.49609375 C174.52966995 167.5322023 174.54762115 166.56831085 174.56611633 165.57521057 C174.61982853 162.52935012 174.65398881 159.48364279 174.6875 156.4375 C174.72070762 154.35870283 174.75520042 152.27992576 174.79101562 150.20117188 C174.87553221 145.1342258 174.94252865 140.06732206 175 135 C173.35 135 171.7 135 170 135 C170.02356567 135.96039185 170.02356567 135.96039185 170.04760742 136.94018555 C170.11017115 139.85586631 170.14905808 142.77140555 170.1875 145.6875 C170.21263672 146.69490234 170.23777344 147.70230469 170.26367188 148.74023438 C170.35607234 158.0726813 170.35607234 158.0726813 167 162 C162.2379446 166.08176177 158.04826484 166.73118823 152 167 C151.443125 168.7634375 151.443125 168.7634375 150.875 170.5625 C148.87114825 175.81911576 146.07610468 180.0976721 141.21875 183.1015625 C135.59415485 185.56808578 130.05030545 185.22688645 124 185 C124 188.63 124 192.26 124 196 C125.381875 196.061875 126.76375 196.12375 128.1875 196.1875 C131.7767893 196.59383464 132.92936208 196.9473973 135.9375 199.1875 C153.06881311 222.54838151 140 257.03083236 140 286 C87.2 286 34.4 286 -20 286 C-20.103125 272.59375 -20.20625 259.1875 -20.3125 245.375 C-20.35802002 241.14864746 -20.40354004 236.92229492 -20.45043945 232.56787109 C-20.47302246 227.38989258 -20.47302246 227.38989258 -20.47721863 224.96255493 C-20.48487518 223.27441817 -20.5024168 221.58630805 -20.52787781 219.89834595 C-20.5646018 217.33458278 -20.56952641 214.77248376 -20.56762695 212.20849609 C-20.58561749 211.46187902 -20.60360804 210.71526196 -20.62214375 209.94602013 C-20.56521654 204.18691185 -18.92234776 201.90306599 -15 198 C-11.73791081 195.68496896 -8.93241958 195.82125366 -5 196 C-5 192.37 -5 188.74 -5 185 C-6.485 185.061875 -7.97 185.12375 -9.5 185.1875 C-17.58704798 185.16465523 -23.30094192 182.69905808 -29 177 C-31.45019562 173.079687 -32.13839741 170.55173694 -32 166 C-32.65226562 166.04640625 -33.30453125 166.0928125 -33.9765625 166.140625 C-38.42112256 166.32417615 -41.3556005 166.30462522 -45.4375 164.375 C-48.87935261 161.18499026 -50.77518211 158.32304114 -51.23754883 153.54541016 C-51.29475133 150.7326596 -51.2618084 147.93728714 -51.1875 145.125 C-51.16719727 143.66320312 -51.16719727 143.66320312 -51.14648438 142.171875 C-51.11131962 139.78067137 -51.0621067 137.39063025 -51 135 C-52.27101563 135.01675781 -53.54203125 135.03351563 -54.8515625 135.05078125 C-58.10145269 135.0936297 -60.29329304 134.97797817 -63 133 C-65.83791629 128.74312556 -65.36791418 125.06862918 -65.375 120.0625 C-65.39949219 119.15564453 -65.42398438 118.24878906 -65.44921875 117.31445312 C-65.47865532 110.64707107 -65.47865532 110.64707107 -63.1015625 107.43359375 C-58.8758211 104.55097833 -56.04620401 104.91860961 -51 105 C-51.02356567 104.09290283 -51.02356567 104.09290283 -51.04760742 103.16748047 C-51.1103188 100.40341704 -51.14910411 97.63950379 -51.1875 94.875 C-51.22520508 93.44800781 -51.22520508 93.44800781 -51.26367188 91.9921875 C-51.32029609 86.55626264 -51.11882402 82.67084545 -48 78 C-44.27348363 74.54615556 -41.56989137 73.76398838 -36.625 73.75 C-35.08239763 73.81370629 -33.54002456 73.89043304 -32 74 C-31.9175 72.96875 -31.835 71.9375 -31.75 70.875 C-30.72003016 65.55348918 -28.53495208 62.49346689 -24.6875 58.75 C-19.49002006 55.36559446 -15.16580451 55 -9 55 C-9 43.45 -9 31.9 -9 20 C-10.32 19.34 -11.64 18.68 -13 18 C-14.83380196 14.94366339 -15.00292122 13.08179429 -14.875 9.5 C-13.92080906 5.68323625 -12.71834365 3.8007177 -10 1 C-6.77140153 -0.61429923 -3.49006347 -0.59570657 0 0 Z " fill="#D7DEF3" transform="translate(94,187)"/>
<path d="M0 0 C2.49032002 1.91921699 4.81539312 3.92641307 7.12890625 6.0546875 C7.95777344 6.79203125 8.78664063 7.529375 9.640625 8.2890625 C25.41769275 23.07553334 35.63888419 44.85647119 36.3671875 66.51171875 C36.82704671 92.90680514 30.92208884 115.95325515 12.43188477 135.79003906 C7.70982894 140.67215066 2.51934642 144.92583971 -2.87109375 149.0546875 C-1.80181641 149.78171875 -1.80181641 149.78171875 -0.7109375 150.5234375 C11.82958522 159.30011558 18.89410529 168.54017095 22.50927734 183.52783203 C23.55747183 189.49403279 23.61164579 195.42904564 23.57495117 201.46704102 C23.5662907 203.64626225 23.59556422 205.82297945 23.62695312 208.00195312 C23.62856198 209.39583256 23.62799366 210.7897166 23.625 212.18359375 C23.62685303 213.43213135 23.62870605 214.68066895 23.63061523 215.96704102 C23.12890625 219.0546875 23.12890625 219.0546875 21.43913269 220.72385597 C18.63025973 222.34193835 16.894737 222.43184934 13.66357422 222.43563843 C12.55318787 222.4440979 11.44280151 222.45255737 10.29876709 222.46127319 C8.47831879 222.45216415 8.47831879 222.45216415 6.62109375 222.44287109 C4.69864838 222.45075653 4.69864838 222.45075653 2.73736572 222.45880127 C-0.77503728 222.47247367 -4.28717583 222.46717669 -7.79958344 222.45766401 C-11.47593395 222.45006696 -15.15226187 222.45711315 -18.82861328 222.46182251 C-25.00231999 222.46727994 -31.17591902 222.46008883 -37.34960938 222.44580078 C-44.48652081 222.42947422 -51.62317513 222.43476274 -58.76008034 222.45128 C-64.88843295 222.46489527 -71.01670818 222.46681435 -77.14507103 222.45896399 C-80.80494781 222.45428767 -84.46470375 222.4536614 -88.12457275 222.46357346 C-92.20429708 222.47385087 -96.28357837 222.45960511 -100.36328125 222.44287109 C-101.57691345 222.44894379 -102.79054565 222.45501648 -104.04095459 222.46127319 C-105.15134094 222.45281372 -106.26172729 222.44435425 -107.40576172 222.43563843 C-108.37029266 222.43450735 -109.33482361 222.43337627 -110.32858276 222.43221092 C-113.34326322 221.98457766 -114.71848411 221.19314712 -116.87109375 219.0546875 C-117.27943146 216.48639737 -117.43260218 214.35024321 -117.40234375 211.78125 C-117.40617065 211.06166107 -117.40999756 210.34207214 -117.41394043 209.60067749 C-117.41666336 208.07247526 -117.40927531 206.54422672 -117.39257812 205.01611328 C-117.37148158 202.72186421 -117.39219745 200.43086002 -117.41796875 198.13671875 C-117.44756555 183.09827929 -114.14861851 169.59088491 -103.37109375 158.4765625 C-99.42141896 154.83251731 -95.54886373 151.71818642 -90.87109375 149.0546875 C-91.76570313 148.32765625 -92.6603125 147.600625 -93.58203125 146.8515625 C-113.21550429 130.64611293 -126.12565086 111.25701618 -129.5546875 85.5546875 C-131.80938674 60.61381689 -126.38395521 36.38039196 -110.62109375 16.3671875 C-82.48998702 -16.27058894 -36.21801557 -24.53955341 0 0 Z " fill="#E2E7F3" transform="translate(446.87109375,251.9453125)"/>
<path d="M0 0 C9.90130645 -0.09288003 19.80250842 -0.16385614 29.7041626 -0.20724869 C34.30244387 -0.22808014 38.90042601 -0.25631609 43.49853516 -0.30175781 C47.94004232 -0.34537476 52.38126264 -0.36917049 56.82296753 -0.37950897 C58.51338208 -0.386872 60.2037818 -0.40125021 61.89407349 -0.42292023 C79.94947903 -0.64508736 79.94947903 -0.64508736 86.49707031 5.37689209 C91.91186753 11.26394904 92.29709102 17.526114 92.2746582 25.09130859 C92.27976913 25.98641647 92.28488007 26.88152435 92.29014587 27.80375671 C92.30400446 30.75205235 92.30308781 33.70011323 92.30078125 36.6484375 C92.30467041 38.70578091 92.30900553 40.76312351 92.31376648 42.82046509 C92.3212208 47.12935999 92.32094324 51.43817294 92.31567383 55.74707031 C92.30988226 61.25709061 92.32680662 66.76677443 92.3500185 72.27673912 C92.36478173 76.52507474 92.36562397 80.77332983 92.36250877 85.02168655 C92.36302075 87.05257457 92.36823513 89.08346725 92.37832069 91.11433029 C92.39071703 93.95974052 92.38387406 96.80450177 92.37231445 99.64990234 C92.37995819 100.48133255 92.38760193 101.31276276 92.39547729 102.16938782 C92.34019776 108.3547034 91.38273474 114.07522134 87.3515625 119.0234375 C86.49691406 119.69246094 86.49691406 119.69246094 85.625 120.375 C84.77808594 121.06722656 84.77808594 121.06722656 83.9140625 121.7734375 C79.51062864 124.59522981 75.80157441 125.24456469 70.60546875 125.1953125 C68.97967896 125.18781982 68.97967896 125.18781982 67.32104492 125.18017578 C65.9569751 125.16196777 64.59290527 125.14375977 63.1875 125.125 C58.835625 125.08375 54.48375 125.0425 50 125 C50 136.88 50 148.76 50 161 C43.25390219 156.50260146 43.25390219 156.50260146 40.8515625 154.23046875 C40.3253833 153.73780518 39.7992041 153.2451416 39.25708008 152.73754883 C38.44920044 151.97027466 38.44920044 151.97027466 37.625 151.1875 C36.47597664 150.11121403 35.32624009 149.03568893 34.17578125 147.9609375 C33.35327881 147.19088379 33.35327881 147.19088379 32.51416016 146.40527344 C30.0507138 144.11897914 27.51532594 141.91982517 24.97265625 139.72265625 C21.70421432 136.8684327 18.50481205 133.93750397 15.296875 131.015625 C14.53890625 130.35046875 13.7809375 129.6853125 13 129 C12.41105831 128.47109633 11.82211662 127.94219267 11.21532822 127.39726162 C8.38662877 125.61313178 6.59007264 125.62627055 3.25787354 125.62818909 C2.08595459 125.62143158 0.91403564 125.61467407 -0.293396 125.60771179 C-1.57554993 125.61543106 -2.85770386 125.62315033 -4.17871094 125.63110352 C-5.54561667 125.62863495 -6.91252052 125.62479597 -8.27941895 125.61968994 C-11.2216192 125.61135428 -14.16362588 125.6121576 -17.10582733 125.61987495 C-21.7627201 125.63146566 -26.41936437 125.61928792 -31.07623291 125.60325623 C-42.64585876 125.56707088 -54.21547896 125.56082842 -65.78515625 125.56335449 C-74.77197736 125.56506749 -83.75859526 125.55788537 -92.74535966 125.52337593 C-97.36965391 125.50661947 -101.99345198 125.50834453 -106.61774397 125.52419865 C-109.50262417 125.53001568 -112.38727166 125.51921929 -115.27210999 125.50395203 C-117.23624506 125.49847901 -119.20040449 125.5127962 -121.16448975 125.52781677 C-128.73473848 125.46653982 -134.81803744 125.0059521 -140.54781723 119.51732731 C-144.20710125 115.35735861 -145.13276645 112.22301644 -145.0625 106.8125 C-145.05347656 105.91144531 -145.04445312 105.01039063 -145.03515625 104.08203125 C-145.02355469 103.39496094 -145.01195312 102.70789063 -145 102 C-144.33831094 101.99853344 -143.67662188 101.99706688 -142.99488163 101.99555588 C-126.86865613 101.95844808 -110.74267413 101.89938099 -94.61662388 101.81609726 C-86.81806166 101.77634664 -79.01959977 101.74393404 -71.22094727 101.72900391 C-64.42087649 101.71596667 -57.62102684 101.68894948 -50.82108063 101.64538693 C-47.22300218 101.62281832 -43.62519598 101.60708653 -40.02704048 101.60811615 C-36.00282362 101.60900505 -31.97940589 101.57867271 -27.95532227 101.54589844 C-26.77208374 101.5509288 -25.58884521 101.55595917 -24.36975098 101.56114197 C-17.62349262 101.47629438 -11.60119026 101.07799415 -6 97 C-1.16118632 91.89978438 -0.26746907 86.73159024 -0.34057617 79.921875 C-0.33009247 79.05263901 -0.31960876 78.18340302 -0.30880737 77.28782654 C-0.28022151 74.44151386 -0.28632941 71.59642954 -0.29296875 68.75 C-0.27984373 66.76601652 -0.26453704 64.78204638 -0.24714661 62.7980957 C-0.20737799 57.59654661 -0.19711138 52.39534773 -0.19311523 47.19366455 C-0.18376848 41.8777001 -0.14634524 36.56194011 -0.11132812 31.24609375 C-0.04683508 20.83073865 -0.01352704 10.41553732 0 0 Z " fill="#4D90F1" transform="translate(351,61)"/>
<path d="M0 0 C1.18177826 -0.00852997 2.36355652 -0.01705994 3.58114624 -0.02584839 C4.87422195 -0.02494202 6.16729767 -0.02403564 7.4995575 -0.02310181 C8.87793848 -0.02908757 10.25631611 -0.03589323 11.63468933 -0.04345703 C15.37655661 -0.06112107 19.11833241 -0.06581262 22.86023736 -0.0670886 C25.19942884 -0.06851073 27.53859711 -0.07278151 29.87778282 -0.07808304 C38.04257558 -0.09658583 46.20730306 -0.10475349 54.37211609 -0.10317993 C61.9759253 -0.101979 69.57945044 -0.12307111 77.18318778 -0.15466726 C83.71667065 -0.18084599 90.25006084 -0.19154654 96.78359574 -0.19026911 C100.68340076 -0.18975987 104.58295341 -0.19542154 108.48270607 -0.21662521 C112.15262786 -0.23603433 115.82205729 -0.23611428 119.49199677 -0.22159195 C121.4742319 -0.21851428 123.45646721 -0.23516229 125.43862915 -0.25247192 C137.12301446 -0.17011859 137.12301446 -0.17011859 142.21318054 4.26742554 C152.28484158 31.12518832 145.21318054 61.58332231 145.21318054 90.26742554 C92.41318054 90.26742554 39.61318054 90.26742554 -14.78681946 90.26742554 C-14.88994446 76.86117554 -14.99306946 63.45492554 -15.09931946 49.64242554 C-15.16759949 43.30289673 -15.16759949 43.30289673 -15.23725891 36.83529663 C-15.25984192 31.65731812 -15.25984192 31.65731812 -15.26403809 29.22998047 C-15.27169463 27.54184371 -15.28923625 25.85373359 -15.31469727 24.16577148 C-15.35142126 21.60200832 -15.35634587 19.0399093 -15.35444641 16.47592163 C-15.37243695 15.72930456 -15.39042749 14.98268749 -15.4089632 14.21344566 C-15.37112983 10.38598713 -14.84322019 7.85098189 -12.50134277 4.87939453 C-8.35943592 0.89396835 -5.72477623 0.01868315 0 0 Z " fill="#E1E6F2" transform="translate(88.78681945800781,382.7325744628906)"/>
<path d="M0 0 C2.49032002 1.91921699 4.81539312 3.92641307 7.12890625 6.0546875 C7.95777344 6.79203125 8.78664063 7.529375 9.640625 8.2890625 C25.41769275 23.07553334 35.63888419 44.85647119 36.3671875 66.51171875 C36.82534704 92.80924714 30.99707509 116.10228722 12.41650391 135.7878418 C11.00665142 137.23147048 9.57667025 138.6491152 8.12890625 140.0546875 C7.40985107 140.75295654 7.40985107 140.75295654 6.67626953 141.46533203 C0.67934344 147.15120166 0.67934344 147.15120166 -2.87109375 149.0546875 C-6.24602323 148.86600473 -8.84187171 148.56929852 -11.87109375 147.0546875 C-11.87109375 146.0646875 -11.87109375 145.0746875 -11.87109375 144.0546875 C-12.58652344 143.94253906 -13.30195313 143.83039063 -14.0390625 143.71484375 C-17.06225373 143.01012745 -19.43432063 141.92180952 -22.18359375 140.4921875 C-23.06660156 140.03714844 -23.94960938 139.58210937 -24.859375 139.11328125 C-25.52324219 138.76394531 -26.18710937 138.41460937 -26.87109375 138.0546875 C-26.87109375 135.7446875 -26.87109375 133.4346875 -26.87109375 131.0546875 C-26.13246094 130.73757813 -25.39382813 130.42046875 -24.6328125 130.09375 C-10.88023774 123.7679151 -2.00950514 114.70050851 4.12890625 101.0546875 C4.8392894 98.65050822 5.50889342 96.23374211 6.12890625 93.8046875 C7.60259046 88.35731908 7.60259046 88.35731908 10.00390625 86.9765625 C12.12890625 86.5546875 12.12890625 86.5546875 14.22265625 86.3359375 C16.40601111 86.17742308 16.40601111 86.17742308 18.62890625 84.0546875 C20.8130411 79.68641781 20.87850874 75.84425287 20.12890625 71.0546875 C18.60432809 67.93924518 17.40632293 66.60103679 14.2109375 65.234375 C11.86591152 64.44578219 9.50299371 63.75054072 7.12890625 63.0546875 C-6.73381324 58.469995 -15.86102406 49.66288781 -22.62890625 36.68359375 C-23.03882813 35.81605469 -23.44875 34.94851563 -23.87109375 34.0546875 C-24.81984375 34.9003125 -25.76859375 35.7459375 -26.74609375 36.6171875 C-39.03762666 47.06867058 -53.79888663 55.34172577 -69.55859375 59.1171875 C-70.25992432 59.28710205 -70.96125488 59.4570166 -71.68383789 59.63208008 C-81.45092543 61.95269641 -90.95828284 63.32847521 -100.99780273 63.5378418 C-105.4458506 63.69853942 -108.31276807 64.34640629 -111.87109375 67.0546875 C-114.20881889 69.95669113 -114.83584034 71.77769644 -115.30859375 75.4921875 C-114.79003647 79.71472538 -113.53758543 81.778712 -110.87109375 85.0546875 C-107.6834701 87.17976994 -105.60597152 87.5567038 -101.87109375 88.0546875 C-101.59136719 88.99828125 -101.31164062 89.941875 -101.0234375 90.9140625 C-95.26622944 109.63111339 -86.77468516 120.361719 -69.87109375 130.0546875 C-69.21109375 130.3846875 -68.55109375 130.7146875 -67.87109375 131.0546875 C-67.87109375 133.6946875 -67.87109375 136.3346875 -67.87109375 139.0546875 C-69.63864901 139.89495146 -71.41026638 140.72667472 -73.18359375 141.5546875 C-74.16972656 142.01875 -75.15585937 142.4828125 -76.171875 142.9609375 C-78.87109375 144.0546875 -78.87109375 144.0546875 -81.87109375 144.0546875 C-81.87109375 145.0446875 -81.87109375 146.0346875 -81.87109375 147.0546875 C-85.71331584 148.92090966 -87.78963581 149.34852143 -91.87109375 148.0546875 C-94.07790694 146.51309978 -96.042303 145.00116918 -98.05859375 143.2421875 C-98.62739258 142.7486377 -99.19619141 142.25508789 -99.78222656 141.74658203 C-117.74938343 125.77969473 -128.45007678 104.17168319 -129.99658203 80.1015625 C-131.1488113 55.82947659 -124.37729016 32.32715905 -108.3046875 13.6796875 C-79.90969777 -16.94861603 -34.98318619 -23.7028935 0 0 Z " fill="#742F84" transform="translate(446.87109375,251.9453125)"/>
<path d="M0 0 C3.5890191 3.2388709 5.77612308 7.31893765 8.28125 11.40625 C9.85707887 13.97100151 9.85707887 13.97100151 11.71875 15.71875 C12.1415625 16.1415625 12.564375 16.564375 13 17 C13 17.66 13 18.32 13 19 C13.57878906 19.27070313 14.15757812 19.54140625 14.75390625 19.8203125 C17.00420561 21.00220886 18.89749626 22.36359608 20.9375 23.875 C25.69660589 27.12915684 30.51947552 28.45646743 36.02734375 29.99609375 C40.47258857 31.49731309 43.8439579 33.68791579 46 38 C46.51512617 42.09157355 46.94367269 46.23589546 44.953125 49.95703125 C43.18601378 52.09315687 41.49101659 53.75449171 39 55 C37.00039988 55.039992 34.99952758 55.04346799 33 55 C32.93683594 55.55945313 32.87367188 56.11890625 32.80859375 56.6953125 C30.51235211 71.72965248 21.96315759 84.06686988 9.875 93 C5.97742275 95.5882349 2.58093839 97.10372945 -2 98 C-1.5978125 99.8253125 -1.5978125 99.8253125 -1.1875 101.6875 C-0.77987386 105.11036065 -0.72464768 105.64470669 -2.9375 108.5 C-3.948125 109.325 -4.95875 110.15 -6 111 C-7.30558838 112.25652661 -8.59620286 113.5287173 -9.875 114.8125 C-10.55304688 115.48925781 -11.23109375 116.16601562 -11.9296875 116.86328125 C-15.08960233 120.12455184 -18.05760486 123.54268571 -21 127 C-24.20423216 125.59801052 -26.25040288 123.95383271 -28.63671875 121.41015625 C-29.29607422 120.70826172 -29.95542969 120.00636719 -30.63476562 119.28320312 C-31.31216797 118.55037109 -31.98957031 117.81753906 -32.6875 117.0625 C-33.37650391 116.33353516 -34.06550781 115.60457031 -34.77539062 114.85351562 C-39.87093033 109.38720902 -39.87093033 109.38720902 -41 106 C-41.66 106 -42.32 106 -43 106 C-43 103.36 -43 100.72 -43 98 C-43.87914062 97.74347656 -44.75828125 97.48695313 -45.6640625 97.22265625 C-58.99654529 92.3361608 -67.7017436 80.8177828 -73.58984375 68.46484375 C-75.39196663 64.03691301 -76.46453258 59.74271143 -77 55 C-78.299375 55.1546875 -78.299375 55.1546875 -79.625 55.3125 C-84.13862642 54.89457163 -85.83958608 53.16041392 -89 50 C-91.54641337 46.52761813 -91.43529792 43.20787993 -91 39 C-88.68959851 34.55033788 -86.49683439 32.15823172 -82 30 C-79.44332315 29.72648164 -77.05676763 29.59035607 -74.5 29.5625 C-46.92609542 28.53059685 -19.64051521 19.93179404 0 0 Z " fill="#FEC5AC" transform="translate(422,285)"/>
<path d="M0 0 C11.56756757 0 11.56756757 0 16 4 C20.1205752 8.84314052 19.33738561 14.30554608 19.1875 20.3125 C19.16719727 21.85260742 19.16719727 21.85260742 19.14648438 23.42382812 C19.11123883 25.94975909 19.061967 28.4746066 19 31 C19.61488281 30.97317139 20.22976563 30.94634277 20.86328125 30.91870117 C22.07564453 30.88740112 22.07564453 30.88740112 23.3125 30.85546875 C24.11300781 30.82864014 24.91351563 30.80181152 25.73828125 30.77416992 C28 31 28 31 31 33.3125 C34.10891088 37.490099 34.18489005 40.71764669 34.25 45.8125 C34.27578125 47.01519531 34.3015625 48.21789062 34.328125 49.45703125 C33.95696474 53.46467838 32.93020203 57.06979797 30 60 C29.8883352 61.36384771 29.84331764 62.73325554 29.82641602 64.1015625 C29.81292618 64.97337158 29.79943634 65.84518066 29.78553772 66.7434082 C29.77509933 67.6943335 29.76466095 68.64525879 29.75390625 69.625 C29.72093706 71.63151427 29.68772599 73.63802459 29.65429688 75.64453125 C29.6070909 78.81295732 29.56273247 81.98137103 29.52319336 85.14990234 C29.48317439 88.20428405 29.43166973 91.25831545 29.37890625 94.3125 C29.3704921 95.24723145 29.36207794 96.18196289 29.35340881 97.14501953 C29.21110723 104.81526865 28.89105752 112.60854685 23.75 118.6875 C22.82574219 119.80705078 22.82574219 119.80705078 21.8828125 120.94921875 C20.2103742 122.77085797 18.48134123 124.37233849 16.625 126 C13.53764662 129.52840386 13.3243144 131.4073206 13.30078125 135.94921875 C12.91289451 138.59390106 12.10551913 139.40019447 10 141 C6.03726124 142.02737671 3.88873027 142.40572469 0.125 140.6875 C-2 139 -2 139 -3 137 C-3.56755089 129.96236891 -3.56755089 129.96236891 -1.5625 126.5625 C1.19904656 124.87863015 2.02305026 124.90245088 5.125 124.875 C10.94645898 124.47019656 13.87503011 121.0047317 17.8359375 117.03125 C22.76219207 110.13093674 23.45396696 102.77480644 23.51171875 94.49609375 C23.52966995 93.5322023 23.54762115 92.56831085 23.56611633 91.57521057 C23.61982853 88.52935012 23.65398881 85.48364279 23.6875 82.4375 C23.72070762 80.35870283 23.75520042 78.27992576 23.79101562 76.20117188 C23.87553221 71.1342258 23.94252865 66.06732206 24 61 C22.35 61 20.7 61 19 61 C19.01571045 61.64026123 19.0314209 62.28052246 19.04760742 62.94018555 C19.11017115 65.85586631 19.14905808 68.77140555 19.1875 71.6875 C19.21263672 72.69490234 19.23777344 73.70230469 19.26367188 74.74023438 C19.35590342 84.05562062 19.35590342 84.05562062 16 88 C10.39043921 93.06228657 8.55276812 92 0 92 C0 61.64 0 31.28 0 0 Z " fill="#C4CFF3" transform="translate(245,261)"/>
<path d="M0 0 C0 30.36 0 60.72 0 92 C-11.68421053 92 -11.68421053 92 -16 88 C-19.65865875 82.52068168 -19.3549728 77.46320154 -19.1875 71.125 C-19.16719727 69.66320312 -19.16719727 69.66320312 -19.14648438 68.171875 C-19.11131962 65.78067137 -19.0621067 63.39063025 -19 61 C-20.27101563 61.01675781 -21.54203125 61.03351563 -22.8515625 61.05078125 C-26.10145269 61.0936297 -28.29329304 60.97797817 -31 59 C-33.83791629 54.74312556 -33.36791418 51.06862918 -33.375 46.0625 C-33.39949219 45.15564453 -33.42398438 44.24878906 -33.44921875 43.31445312 C-33.47865532 36.64707107 -33.47865532 36.64707107 -31.1015625 33.43359375 C-26.8758211 30.55097833 -24.04620401 30.91860961 -19 31 C-19.02356567 30.09290283 -19.02356567 30.09290283 -19.04760742 29.16748047 C-19.1103188 26.40341704 -19.14910411 23.63950379 -19.1875 20.875 C-19.22520508 19.44800781 -19.22520508 19.44800781 -19.26367188 17.9921875 C-19.32029609 12.55626264 -19.11882402 8.67084545 -16 4 C-10.4802282 -1.11588606 -8.46356783 0 0 0 Z " fill="#C5D0F3" transform="translate(62,261)"/>
<path d="M0 0 C2.9375 1.875 2.9375 1.875 5 5 C5.40212665 8.37683275 5.29555239 11.61756708 5 15 C5.76183594 14.566875 5.76183594 14.566875 6.5390625 14.125 C14.13677812 10.02735562 14.13677812 10.02735562 19 11 C22.32274404 13.45594125 23.77618008 14.9256644 24.625 19 C23.78931708 23.01127801 22.17074734 24.47781462 19 27 C16.6875 27.8125 16.6875 27.8125 15 28 C15 28.66 15 29.32 15 30 C15.7425 30.2475 16.485 30.495 17.25 30.75 C20.36557547 32.16617067 22.02560769 33.19028787 24 36 C24.07603596 40.25801359 23.67521252 42.24762034 20.8125 45.4375 C17.36524407 47.35264218 15.89253873 47.6869186 12 47 C9.18691246 45.52986926 6.58557469 43.83746424 4 42 C4.04640625 42.81984375 4.0928125 43.6396875 4.140625 44.484375 C4.19476563 46.10085938 4.19476563 46.10085938 4.25 47.75 C4.29640625 48.81734375 4.3428125 49.8846875 4.390625 50.984375 C4 54 4 54 2.19921875 56.35546875 C0 58 0 58 -3.4375 58.5625 C-7 58 -7 58 -9.9375 56.125 C-12.82275119 51.75340728 -12.44494135 48.09210661 -12 43 C-12.50789063 43.28875 -13.01578125 43.5775 -13.5390625 43.875 C-17.77409626 46.15906315 -21.0715126 47.89608862 -26 47 C-29.20907572 44.8317056 -29.91479011 43.27567907 -31.0625 39.5625 C-31 36 -31 36 -28.8125 33.125 C-26.34555877 31.26108885 -25.01234107 30.33470456 -22 30 C-22 29.34 -22 28.68 -22 28 C-22.763125 27.731875 -23.52625 27.46375 -24.3125 27.1875 C-28.52744887 25.32508073 -28.52744887 25.32508073 -30 23 C-30.48347235 18.64874889 -30.70063859 16.24896445 -28.5625 12.4375 C-24.64021353 10.23719296 -21.25912902 10.90869292 -17 12 C-13.9375 13.5625 -13.9375 13.5625 -12 15 C-11.97421875 14.25234375 -11.9484375 13.5046875 -11.921875 12.734375 C-11.46294235 4.76563543 -11.46294235 4.76563543 -9.375 1.3125 C-5.96235878 -0.57343331 -3.83922392 -0.60619325 0 0 Z " fill="#54D8C0" transform="translate(157,399)"/>
<path d="M0 0 C1.41449133 0.00138269 1.41449133 0.00138269 2.85755825 0.00279331 C3.93594463 0.00141865 5.01433102 0.00004398 6.12539577 -0.00137234 C7.31869503 0.00222294 8.51199429 0.00581821 9.74145412 0.00952244 C10.99005718 0.00937641 12.23866024 0.00923038 13.52509975 0.00907993 C16.95883867 0.00965892 20.39251812 0.01468828 23.8262465 0.02165389 C27.41105332 0.02788785 30.99586086 0.02849126 34.58067226 0.0296793 C41.37342918 0.03279249 48.16617009 0.04100571 54.95891994 0.05102879 C62.69035367 0.0621903 70.42178815 0.06770047 78.15322793 0.07272422 C94.06147107 0.08318834 109.96969721 0.10098801 125.87792873 0.12304783 C125.87792873 4.41304783 125.87792873 8.70304783 125.87792873 13.12304783 C109.2060737 13.14616656 92.53422524 13.16402692 75.86235809 13.17486 C68.12185592 13.18002299 60.38136387 13.18706576 52.64086819 13.19848728 C45.89665722 13.20843402 39.15245359 13.21490123 32.40823549 13.21713632 C28.83506007 13.21844345 25.26190563 13.22152941 21.68873692 13.22877789 C17.70630523 13.23679154 13.72389432 13.23703897 9.74145412 13.23657322 C8.54815487 13.2401685 7.35485561 13.24376377 6.12539577 13.24746799 C5.04700939 13.24609333 3.96862301 13.24471867 2.85755825 13.24330235 C1.91456403 13.24422414 0.97156981 13.24514593 0 13.24609566 C-2.12207127 13.12304783 -2.12207127 13.12304783 -3.12207127 12.12304783 C-3.22058298 10.291889 -3.25179756 8.4568485 -3.24707127 6.62304783 C-3.24964939 5.62273533 -3.25222752 4.62242283 -3.25488377 3.59179783 C-3.07123465 0.17808486 -3.07123465 0.17808486 0 0 Z " fill="#C5D0F2" transform="translate(92.12207126617432,370.8769521713257)"/>
<path d="M0 0 C4.31189662 2.22579545 6.88529999 4.93984747 8.87109375 9.30859375 C9.62880084 14.47974935 9.67605603 19.49067168 7.30859375 24.24609375 C3.76210825 28.7019345 0.77128381 30.85583948 -4.78125 31.72265625 C-10.39430515 32.01524349 -14.43130573 31.51245751 -18.7578125 27.77734375 C-23.17435894 23.04622847 -23.72552867 18.25287829 -23.546875 12 C-22.72728957 6.72248264 -19.81947942 3.8499987 -16.00390625 0.37109375 C-10.86667911 -1.52744671 -5.2397316 -1.701711 0 0 Z " fill="#FEFEFE" transform="translate(128.12890625,291.69140625)"/>
<path d="M0 0 C5.56968177 1.95970285 8.05638653 5.0845798 11.25 9.875 C12.92751249 14.62795204 12.37608897 18.70107377 10.3125 23.1875 C7.83698495 27.71716583 4.93990878 30.35336374 0 32 C-4.96860315 32.52166057 -8.85518979 32.5724051 -13.375 30.3125 C-16.96775803 27.14745126 -20.69412413 23.78798338 -21.23828125 18.828125 C-21.40659218 12.98153463 -21.02425335 9.56807137 -17 5 C-11.3010612 -0.0204937 -7.46345948 -0.63152349 0 0 Z " fill="#FEFEFE" transform="translate(191,291)"/>
<path d="M0 0 C5.54050113 0.56825653 10.03715966 2.62886517 15 5 C14.46689335 12.75427859 11.95876317 19.68717849 9.4375 27 C9.00776298 28.26408497 8.57872069 29.52840635 8.15039062 30.79296875 C7.10705272 33.86436798 6.0567602 36.93319848 5 40 C2.32566776 38.73939405 0.03425755 37.37927159 -2.27734375 35.5390625 C-2.87353516 35.06726563 -3.46972656 34.59546875 -4.08398438 34.109375 C-4.69564453 33.61953125 -5.30730469 33.1296875 -5.9375 32.625 C-6.54529297 32.14289063 -7.15308594 31.66078125 -7.77929688 31.1640625 C-9.52265686 29.77990614 -11.26206605 28.39096037 -13 27 C-13.97066406 26.22398437 -14.94132812 25.44796875 -15.94140625 24.6484375 C-16.96041016 23.83246094 -16.96041016 23.83246094 -18 23 C-17.41243062 19.61753109 -16.31590734 17.92291697 -13.9453125 15.46875 C-13.33042969 14.82292969 -12.71554687 14.17710937 -12.08203125 13.51171875 C-11.43621094 12.84785156 -10.79039062 12.18398438 -10.125 11.5 C-8.85504815 10.17873696 -7.58676409 8.85586847 -6.3203125 7.53125 C-5.75586426 6.94923828 -5.19141602 6.36722656 -4.60986328 5.76757812 C-2.93615354 3.92989864 -1.460092 2.01003976 0 0 Z " fill="#ECF0F7" transform="translate(419,391)"/>
<path d="M0 0 C60.72 0 121.44 0 184 0 C184.33 1.32 184.66 2.64 185 4 C123.95 4 62.9 4 0 4 C0 2.68 0 1.36 0 0 Z " fill="#41BEA6" transform="translate(141,127)"/>
<path d="M0 0 C61.05 0 122.1 0 185 0 C184.67 1.32 184.34 2.64 184 4 C123.28 4 62.56 4 0 4 C0 2.68 0 1.36 0 0 Z " fill="#41BEA5" transform="translate(141,99)"/>
<path d="M0 0 C0.825 0.2165625 1.65 0.433125 2.5 0.65625 C15.52240755 3.79558039 27.87589187 4.11419515 41 1 C41.8125 4.1875 41.8125 4.1875 42 8 C40.0625 10.4375 40.0625 10.4375 37 13 C35.69577279 14.2579394 34.40504413 15.52996066 33.125 16.8125 C32.44695312 17.48925781 31.76890625 18.16601562 31.0703125 18.86328125 C27.91039767 22.12455184 24.94239514 25.54268571 22 29 C18.79576784 27.59801052 16.74959712 25.95383271 14.36328125 23.41015625 C13.70392578 22.70826172 13.04457031 22.00636719 12.36523438 21.28320312 C11.68783203 20.55037109 11.01042969 19.81753906 10.3125 19.0625 C9.62349609 18.33353516 8.93449219 17.60457031 8.22460938 16.85351562 C3.12906967 11.38720902 3.12906967 11.38720902 2 8 C1.34 8 0.68 8 0 8 C0 5.36 0 2.72 0 0 Z " fill="#FBAA87" transform="translate(379,383)"/>
<path d="M0 0 C0.04969116 6.24388488 0.08585699 12.48765288 0.10986328 18.73168945 C0.11987844 20.85280362 0.13349446 22.97390413 0.15087891 25.0949707 C0.17532525 28.15579616 0.18652825 31.21643797 0.1953125 34.27734375 C0.20563507 35.21521225 0.21595764 36.15308075 0.22659302 37.11936951 C0.22788622 44.82622866 -0.08232922 52.57707847 -5.25 58.6875 C-6.17425781 59.80705078 -6.17425781 59.80705078 -7.1171875 60.94921875 C-8.7896258 62.77085797 -10.51865877 64.37233849 -12.375 66 C-15.46235338 69.52840386 -15.6756856 71.4073206 -15.69921875 75.94921875 C-16.08710549 78.59390106 -16.89448087 79.40019447 -19 81 C-22.96273876 82.02737671 -25.11126973 82.40572469 -28.875 80.6875 C-31 79 -31 79 -32 77 C-32.56755089 69.96236891 -32.56755089 69.96236891 -30.5625 66.5625 C-27.80095344 64.87863015 -26.97694974 64.90245088 -23.875 64.875 C-18.05354102 64.47019656 -15.12496989 61.0047317 -11.1640625 57.03125 C-6.23780793 50.13093674 -5.54603304 42.77480644 -5.48828125 34.49609375 C-5.47033005 33.5322023 -5.45237885 32.56831085 -5.43388367 31.57521057 C-5.38017147 28.52935012 -5.34601119 25.48364279 -5.3125 22.4375 C-5.27929238 20.35870283 -5.24479958 18.27992576 -5.20898438 16.20117188 C-5.12446779 11.1342258 -5.05747135 6.06732206 -5 1 C-3 0 -3 0 0 0 Z " fill="#3A49A1" transform="translate(274,321)"/>
<path d="M0 0 C0 9.9 0 19.8 0 30 C-9 30 -9 30 -13 28 C-15.83791629 23.74312556 -15.36791418 20.06862918 -15.375 15.0625 C-15.39949219 14.15564453 -15.42398437 13.24878906 -15.44921875 12.31445312 C-15.47865532 5.64707107 -15.47865532 5.64707107 -13.1015625 2.43359375 C-8.05764383 -1.00714631 -7.92538861 0 0 0 Z " fill="#A5B8F3" transform="translate(44,292)"/>
<path d="M0 0 C9 0 9 0 12 2.3125 C15.10891088 6.490099 15.18489005 9.71764669 15.25 14.8125 C15.28867187 16.61654297 15.28867187 16.61654297 15.328125 18.45703125 C14.96923878 22.33214797 14.03180891 24.70319468 12 28 C7.79030405 30.57259197 5.30079724 30 0 30 C0 20.1 0 10.2 0 0 Z " fill="#A4B7F3" transform="translate(264,292)"/>
<path d="M0 0 C3.02508145 1.73602105 5.41790069 3.83580137 7 7 C7.3589004 11.37858489 7.48956483 13.95411151 5.625 17.9375 C1.69780161 21.02315588 -2.10430749 21.12716084 -7 21 C-10.83237267 20.2661414 -11.63619405 19.52145519 -13.875 16.3125 C-15.24047384 12.29193814 -15.11378823 10.08389018 -14 6 C-10.22874079 0.40393795 -6.75155719 -1.15239937 0 0 Z " fill="#4BD8BC" transform="translate(94,187)"/>
<path d="M0 0 C3.3 0 6.6 0 10 0 C10 11.88 10 23.76 10 36 C6.7 36 3.4 36 0 36 C0 24.12 0 12.24 0 0 Z " fill="#C4D0F2" transform="translate(85,207)"/>
<path d="M0 0 C31.35 0 62.7 0 95 0 C95 0.99 95 1.98 95 3 C63.65 3 32.3 3 0 3 C0 2.01 0 1.02 0 0 Z " fill="#41BDA5" transform="translate(140,71)"/>
<path d="M0 0 C22.11 0 44.22 0 67 0 C66.67 1.32 66.34 2.64 66 4 C43.89 4 21.78 4 -1 4 C-0.67 2.68 -0.34 1.36 0 0 Z " fill="#336CBD" transform="translate(350,150)"/>
<path d="M0 0 C21.78 0 43.56 0 66 0 C65.67 1.32 65.34 2.64 65 4 C43.55 4 22.1 4 0 4 C0 2.68 0 1.36 0 0 Z " fill="#3670C3" transform="translate(351,122)"/>
<path d="M0 0 C21.45 0 42.9 0 65 0 C65.495 1.98 65.495 1.98 66 4 C44.22 4 22.44 4 0 4 C0 2.68 0 1.36 0 0 Z " fill="#336DBE" transform="translate(351,93)"/>
<path d="M0 0 C0 8.25 0 16.5 0 25 C-7 24 -7 24 -8.7421875 22.66015625 C-12.29278111 17.65259492 -13.52016292 15.24195503 -13 9 C-9.92891925 3.08532597 -6.78680704 0 0 0 Z " fill="#F8A685" transform="translate(344,315)"/>
<path d="M0 0 C5.71709452 1.1434189 6.9121004 2.19082083 11 6 C12.86850084 9.73700169 12.54216425 13.93065225 12 18 C10.69211118 20.93835112 9.5908909 21.85011181 7 24 C4.69 24.33 2.38 24.66 0 25 C0 16.75 0 8.5 0 0 Z " fill="#F9A785" transform="translate(456,315)"/>
<path d="M0 0 C0.99 0.33 1.98 0.66 3 1 C3 20.8 3 40.6 3 61 C1.68 61 0.36 61 -1 61 C-1.02312792 53.19424805 -1.04091738 45.38850405 -1.05181217 37.58272648 C-1.05704002 33.9585404 -1.06413587 30.3343777 -1.07543945 26.71020508 C-1.08627184 23.21540025 -1.09227758 19.72061796 -1.09487724 16.22579765 C-1.09763551 14.23760611 -1.10544688 12.24942369 -1.11329651 10.26124573 C-1.11337204 9.06007614 -1.11344757 7.85890656 -1.11352539 6.62133789 C-1.115746 5.55766495 -1.11796661 4.493992 -1.12025452 3.39808655 C-1 1 -1 1 0 0 Z " fill="#D6DEF2" transform="translate(399,413)"/>
<path d="M0 0 C0 0.66 0 1.32 0 2 C0.66 2 1.32 2 2 2 C2 2.66 2 3.32 2 4 C2.66 4 3.32 4 4 4 C4.82000582 6.87002036 5.07215946 8.69693028 4.375 11.625 C2.60328306 14.68523836 1.28560287 15.68575885 -2 17 C-5.70537805 16.93611417 -8.01717965 16.79259706 -10.9375 14.4375 C-12.47842566 10.90243524 -12.67595245 7.79154935 -12 4 C-8.98818934 -1.01968443 -5.31107251 -0.3540715 0 0 Z " fill="#4D91F2" transform="translate(254,386)"/>
<path d="M0 0 C0 2.97 0 5.94 0 9 C-1.38782485 9.8466034 -2.78569397 10.67675339 -4.1875 11.5 C-4.96480469 11.9640625 -5.74210938 12.428125 -6.54296875 12.90625 C-9.26041384 14.11592349 -11.0580985 14.28453624 -14 14 C-15 13 -15 13 -15.0625 9.9375 C-15.041875 8.968125 -15.02125 7.99875 -15 7 C-12.87767021 5.82823482 -10.75242209 4.66245215 -8.625 3.5 C-7.72007812 2.99919922 -7.72007812 2.99919922 -6.796875 2.48828125 C-2.2265625 0 -2.2265625 0 0 0 Z " fill="#D8E6EF" transform="translate(146,428)"/>
<path d="M0 0 C3.96 1.98 3.96 1.98 8 4 C8.05386629 6.12472576 8.09273071 8.24983652 8.125 10.375 C8.14820313 11.55835938 8.17140625 12.74171875 8.1953125 13.9609375 C8 17 8 17 6 19 C1.44444444 18.44444444 1.44444444 18.44444444 0 17 C-0.07325168 14.13732433 -0.09238205 11.299281 -0.0625 8.4375 C-0.05798828 7.63119141 -0.05347656 6.82488281 -0.04882812 5.99414062 C-0.03700518 3.99606244 -0.01906914 1.99802217 0 0 Z " fill="#DCE6F1" transform="translate(150,435)"/>
<path d="M0 0 C0.33 1.65 0.66 3.3 1 5 C-0.96291303 6.23230024 -2.92739131 7.46195441 -4.89453125 8.6875 C-6.55773119 9.72429996 -8.21707468 10.76728621 -9.875 11.8125 C-12 13 -12 13 -14 13 C-14 10.03 -14 7.06 -14 4 C-12.61518672 3.12808053 -11.21654754 2.27809616 -9.8125 1.4375 C-8.64654297 0.72400391 -8.64654297 0.72400391 -7.45703125 -0.00390625 C-4.51639033 -1.19605797 -2.99553637 -0.88855164 0 0 Z " fill="#DCE6F0" transform="translate(176,415)"/>
<path d="M0 0 C2.5625 0.1875 2.5625 0.1875 4.5625 2.1875 C4.70757695 4.93235593 4.74902423 7.57230543 4.6875 10.3125 C4.67847656 11.06660156 4.66945312 11.82070313 4.66015625 12.59765625 C4.6365687 14.46107254 4.60069719 16.32432593 4.5625 18.1875 C-1.1875 16.4375 -1.1875 16.4375 -3.4375 14.1875 C-3.66796875 11.18359375 -3.66796875 11.18359375 -3.625 7.625 C-3.61533203 5.85962891 -3.61533203 5.85962891 -3.60546875 4.05859375 C-3.38325273 0.26025021 -3.38325273 0.26025021 0 0 Z " fill="#D7E6EF" transform="translate(153.4375,402.8125)"/>
<path d="M0 0 C3.375 2.0625 3.375 2.0625 6 4 C5.125 8.875 5.125 8.875 4 10 C-0.43035642 10.50362844 -3.01418141 9.19661798 -6.8125 7 C-7.78832031 6.443125 -8.76414063 5.88625 -9.76953125 5.3125 C-10.87361328 4.6628125 -10.87361328 4.6628125 -12 4 C-12 3.34 -12 2.68 -12 2 C-7.53806685 -0.65591259 -5.02059036 -1.56893449 0 0 Z " fill="#DDE6F1" transform="translate(171,432)"/>
<path d="M0 0 C4.6031764 0.42029002 7.88866495 1.77764942 11.875 4.0625 C12.84179688 4.61035156 13.80859375 5.15820312 14.8046875 5.72265625 C15.89136719 6.35494141 15.89136719 6.35494141 17 7 C11.1068314 11.44767442 11.1068314 11.44767442 8 12 C4.8035881 10.63318414 1.91193925 8.89054008 -1 7 C-1.04254356 5.00045254 -1.04080783 2.99958364 -1 1 C-0.67 0.67 -0.34 0.34 0 0 Z " fill="#DCE6F1" transform="translate(132,414)"/>
<path d="M0 0 C0.99 0.33 1.98 0.66 3 1 C3 8.92 3 16.84 3 25 C1.68 25 0.36 25 -1 25 C-1.02886984 21.02084841 -1.04675406 17.04172347 -1.0625 13.0625 C-1.07087891 11.92619141 -1.07925781 10.78988281 -1.08789062 9.61914062 C-1.09111328 8.53955078 -1.09433594 7.45996094 -1.09765625 6.34765625 C-1.10289307 5.34742432 -1.10812988 4.34719238 -1.11352539 3.31665039 C-1 1 -1 1 0 0 Z " fill="#D6DEF2" transform="translate(358,449)"/>
<path d="M0 0 C4.875 1.875 4.875 1.875 6 3 C10.60777401 3.40957991 12.44412948 2.82017317 16 0 C16.99 0.33 17.98 0.66 19 1 C18.875 2.8125 18.875 2.8125 18 5 C13.96775786 7.62564604 10.7831623 8.6975445 6 8 C2.625 6.25 2.625 6.25 0 4 C0 2.68 0 1.36 0 0 Z " fill="#FA6390" transform="translate(391,358)"/>
<path d="M0 0 C0.04254356 1.99954746 0.04080783 4.00041636 0 6 C-1 7 -1 7 -3.5 7.125 C-6 7 -6 7 -7 6 C-7.04080783 4.00041636 -7.04254356 1.99954746 -7 0 C-4.3333581 -1.33332095 -2.83319697 -0.67102033 0 0 Z " fill="#DEE6F1" transform="translate(157,425)"/>
<path d="M0 0 C1.32 0.33 2.64 0.66 4 1 C4 3.64 4 6.28 4 9 C2.68 9.33 1.36 9.66 0 10 C0 6.7 0 3.4 0 0 Z " fill="#8A468A" transform="translate(375,330)"/>
<path d="M0 0 C0.99 0 1.98 0 3 0 C3 2.97 3 5.94 3 9 C1.68 9 0.36 9 -1 9 C-1.09765625 2.84765625 -1.09765625 2.84765625 -1 1 C-0.67 0.67 -0.34 0.34 0 0 Z " fill="#833F88" transform="translate(422,330)"/>
</svg>
